<svg width="1920" height="1080" viewBox="0 0 1920 1080" xmlns="http://www.w3.org/2000/svg">
  <defs>
    <linearGradient id="heroGradient" x1="0%" y1="0%" x2="100%" y2="100%">
      <stop offset="0%" style="stop-color:#1e293b;stop-opacity:1" />
      <stop offset="25%" style="stop-color:#334155;stop-opacity:1" />
      <stop offset="50%" style="stop-color:#475569;stop-opacity:1" />
      <stop offset="75%" style="stop-color:#334155;stop-opacity:1" />
      <stop offset="100%" style="stop-color:#2563eb;stop-opacity:1" />
    </linearGradient>
    <pattern id="grid" width="100" height="100" patternUnits="userSpaceOnUse">
      <path d="M 100 0 L 0 0 0 100" fill="none" stroke="rgba(255,255,255,0.1)" stroke-width="1"/>
    </pattern>
    <filter id="glow">
      <feGaussianBlur stdDeviation="3" result="coloredBlur"/>
      <feMerge> 
        <feMergeNode in="coloredBlur"/>
        <feMergeNode in="SourceGraphic"/>
      </feMerge>
    </filter>
  </defs>
  
  <!-- Background -->
  <rect width="100%" height="100%" fill="url(#heroGradient)" />
  
  <!-- Grid Pattern -->
  <rect width="100%" height="100%" fill="url(#grid)" opacity="0.3"/>
  
  <!-- Justice Scales Icon (Symbolic) -->
  <g transform="translate(960, 300)" opacity="0.15">
    <circle cx="0" cy="0" r="80" fill="rgba(255, 215, 0, 0.3)" filter="url(#glow)"/>
    <path d="M-40,-30 L40,-30 M0,-30 L0,40 M-30,10 Q-30,20 -20,20 L20,20 Q30,20 30,10 M-30,10 L-40,0 M30,10 L40,0" 
          stroke="rgba(255, 215, 0, 0.8)" stroke-width="3" fill="none"/>
  </g>
  
  <!-- Decorative Elements -->
  <circle cx="300" cy="200" r="120" fill="rgba(37, 99, 235, 0.1)" filter="url(#glow)"/>
  <circle cx="1620" cy="880" r="150" fill="rgba(255, 215, 0, 0.1)" filter="url(#glow)"/>
  <circle cx="1700" cy="150" r="80" fill="rgba(37, 99, 235, 0.15)" filter="url(#glow)"/>
  <circle cx="120" cy="900" r="100" fill="rgba(255, 215, 0, 0.08)" filter="url(#glow)"/>
  
  <!-- Geometric Shapes -->
  <polygon points="1600,400 1650,350 1700,400 1650,450" fill="rgba(255, 255, 255, 0.1)" opacity="0.7"/>
  <polygon points="200,700 250,650 300,700 250,750" fill="rgba(37, 99, 235, 0.2)" opacity="0.6"/>
  
  <!-- Professional Building Silhouette -->
  <g transform="translate(100, 600)" opacity="0.2">
    <rect x="0" y="0" width="80" height="300" fill="rgba(255, 255, 255, 0.1)"/>
    <rect x="100" y="-50" width="60" height="350" fill="rgba(255, 255, 255, 0.15)"/>
    <rect x="180" y="50" width="70" height="250" fill="rgba(255, 255, 255, 0.1)"/>
    <!-- Windows -->
    <rect x="10" y="20" width="15" height="20" fill="rgba(255, 215, 0, 0.3)"/>
    <rect x="30" y="20" width="15" height="20" fill="rgba(255, 215, 0, 0.2)"/>
    <rect x="50" y="20" width="15" height="20" fill="rgba(255, 215, 0, 0.3)"/>
    <rect x="110" y="10" width="15" height="20" fill="rgba(255, 215, 0, 0.2)"/>
    <rect x="130" y="10" width="15" height="20" fill="rgba(255, 215, 0, 0.3)"/>
    <rect x="190" y="70" width="15" height="20" fill="rgba(255, 215, 0, 0.2)"/>
    <rect x="210" y="70" width="15" height="20" fill="rgba(255, 215, 0, 0.3)"/>
  </g>
</svg>
